<svg version="1.1" xmlns="http://www.w3.org/2000/svg" xmlns:xlink="http://www.w3.org/1999/xlink" width="288.83758" height="229.78482" viewBox="0,0,288.83758,229.78482"><g transform="translate(-95.58121,-65.10759)"><g data-paper-data="{&quot;isPaintingLayer&quot;:true}" fill-rule="nonzero" stroke-width="0" stroke-linecap="butt" stroke-linejoin="miter" stroke-miterlimit="10" stroke-dasharray="" stroke-dashoffset="0" style="mix-blend-mode: normal"><path d="M275.4166,215.2827v-77.45192h32.44594v77.45192z" fill="#264678" stroke="none"/><path d="M275.52659,148.89663l8.99563,39.1816l19.25915,8.96042l-28.90793,-0.43z" data-paper-data="{&quot;index&quot;:null}" fill="#203a64" stroke="#000000"/><path d="M185.4166,211.7827v-77.45192h32.44594v77.45192z" fill="#264678" stroke="none"/><path d="M185.5266,145.89663l8.99563,39.1816l19.25914,8.96042l-28.90793,-0.43z" data-paper-data="{&quot;index&quot;:null}" fill="#203a64" stroke="#000000"/><path d="M165.55173,161.00866v-28.91538h72.83784v28.91538z" fill="#4a86e4" stroke="#000000"/><path d="M166.21389,221.59328v-28.91538h72.83784v28.91538z" fill="#9ac0ff" stroke="#000000"/><path d="M275.23347,162.09328v-29h58.06826v29z" fill="#00307d" stroke="none"/><path d="M165.15173,161.00866l59.6029,-9.35081l13.23494,-19.56457v28.91538z" fill="#457dd7" stroke="#000000"/><path d="M238.58957,132.49328l-59.60289,9.35081l-13.23495,19.56457v-28.91538z" data-paper-data="{&quot;index&quot;:null}" fill="#7198d6" stroke="#000000"/><path d="M239.38957,192.84328l-59.60289,9.35081l-13.23495,19.56457v-28.91538z" data-paper-data="{&quot;index&quot;:null}" fill="#aecdff" stroke="#000000"/><path d="M166.00173,221.90866l59.6029,-9.35081l13.23494,-19.56457v28.91538z" fill="#8db1ea" stroke="#000000"/><path d="M241.46389,221.84328v-28.91538h72.83784v28.91538z" fill="#9ac0ff" stroke="#000000"/><path d="M314.63957,193.09328l-59.6029,9.35081l-13.23495,19.56457v-28.91538z" data-paper-data="{&quot;index&quot;:null}" fill="#aecdff" stroke="#000000"/><path d="M241.25173,222.15866l59.6029,-9.35081l13.23494,-19.56457v28.91538z" fill="#8db1ea" stroke="#000000"/><path d="M275.40173,162.50866l47.32846,-9.35081l10.50938,-19.56457v28.91538z" fill="#002259" stroke="#000000"/><path d="M333.23957,133.34328l-47.32846,9.35081l-10.50938,19.56457v-28.91538z" data-paper-data="{&quot;index&quot;:null}" fill="#224989" stroke="#000000"/><path d="M384.41879,136.60909l-34.83241,125.80154l-128.00517,32.48178l115.20479,-56.82278z" fill="#00338a" stroke="#000000"/><path d="M371.41879,183.60909l-22.33241,78.80154l-128.00517,32.48178l95.66251,-29.18033l24.04228,-16.14245z" fill="#002662" stroke="#000000"/><path d="M95.58121,223.39091l34.83241,-125.80154l128.00517,-32.48178l-115.20479,56.82278z" data-paper-data="{&quot;index&quot;:null}" fill="#0050da" stroke="#000000"/><path d="M107.58121,176.89091l22.33241,-78.80154l128.00517,-32.48178l-95.66251,29.18033l-24.04228,16.14245z" data-paper-data="{&quot;index&quot;:null}" fill="#0040a7" stroke="#000000"/></g></g></svg>